# xmcd CD database file
#
# Track frame offsets:
#	150
#	15332
#	32495
#	49800
#	69342
#	87230
#	116472
#	136267
#	155690
#	182352
#	196525
#	210275
#
# Disc length: 3097 seconds
#
# Revision: 0
# Processed by: cddbd v1.5.2PL0 Copyright (c) Steve Scherf et al.
# Submitted via: CDex 1.51
#
DISCID=880c170c
DTITLE=Christian Willisohn and Lillian Boutté - Come Together
DYEAR=1997
DGENRE=Blues
TTITLE0=No One
TTITLE1=Gee Baby
TTITLE2=Come Together
TTITLE3=I Got It Bad
TTITLE4=Thibodeaux Twister
TTITLE5=I Wish I Could Be Free
TTITLE6=Fourty Fout Blues
TTITLE7=You've Got A Friend
TTITLE8=Please Send Me Someone To Love
TTITLE9=No Mission But You
TTITLE10=Get Right Church
TTITLE11=Laughing On The Outside
EXTD=YEAR: 1997
EXTT0=
EXTT1=
EXTT2=
EXTT3=
EXTT4=
EXTT5=
EXTT6=
EXTT7=
EXTT8=
EXTT9=
EXTT10=
EXTT11=
PLAYORDER=
